<?xml version="1.0" encoding="UTF-8"?> <svg xmlns="http://www.w3.org/2000/svg" id="Page-1" width="195.193" height="62.83" viewBox="0 0 195.193 62.83"><g id="wit"><g id="wit-simple-white"><g id="wit-simple"><g id="Grupo_4010" data-name="Grupo 4010" transform="translate(90.885 16.443)"><path id="Trazado_2189" data-name="Trazado 2189" d="M7386.767,87.04l2.775-11.285h2.718l-3.567,14.573h-3.739L7382.3,78.591l-2.655,11.737h-3.75l-3.624-14.573h2.717l2.774,11.285,2.662-11.285h3.68Z" transform="translate(-7372.271 -74.905)" fill="#ffffff"></path><path id="Trazado_2190" data-name="Trazado 2190" d="M7405.5,89.577a11.216,11.216,0,0,0,3.227-.506l.4,1.985a11.564,11.564,0,0,1-3.907.68c-3.34,0-4.473-1.531-4.473-4.083V84.811c0-2.268,1.019-4.139,4.416-4.139s4.19,1.985,4.19,4.308v2.269h-5.95v.566C7403.394,89.064,7403.909,89.577,7405.5,89.577Zm-2.1-4.482h3.4v-.505c0-1.021-.283-1.7-1.643-1.7-1.3,0-1.755.68-1.755,1.7Z" transform="translate(-7379.39 -76.135)" fill="#ffffff"></path><path id="Trazado_2191" data-name="Trazado 2191" d="M7427.793,91.554V84.07c0-.567-.226-.851-.849-.851a7.154,7.154,0,0,0-2.774.907V91.5H7421.5v-10.6h2.039l.283.908a10.348,10.348,0,0,1,4.247-1.138,1.954,1.954,0,0,1,1.981,1.138,10.145,10.145,0,0,1,4.3-1.138c1.755,0,2.378,1.248,2.378,3.175v7.712h-2.654V84.07c0-.567-.227-.851-.85-.851a6.605,6.605,0,0,0-2.775.907V91.5h-2.656Z" transform="translate(-7384.583 -76.131)" fill="#ffffff"></path><path id="Trazado_2192" data-name="Trazado 2192" d="M7453.538,91.559h-2.208l-.169-.737a5.92,5.92,0,0,1-3.171.964c-1.926,0-2.774-1.36-2.774-3.174,0-2.149.963-3.006,3.115-3.006h2.547V84.467c0-1.191-.34-1.588-2.039-1.588a13.07,13.07,0,0,0-2.945.34l-.34-2.042a15.1,15.1,0,0,1,3.624-.505c3.341,0,4.3,1.191,4.3,3.856v7.031Zm-2.662-4.026h-1.981c-.85,0-1.138.226-1.138,1.078,0,.737.227,1.077,1.076,1.077a3.9,3.9,0,0,0,1.982-.568V87.533Z" transform="translate(-7390.513 -76.135)" fill="#ffffff"></path><path id="Trazado_2193" data-name="Trazado 2193" d="M7460.087,90.047V75.019l2.662-.4V89.989h-2.662Zm9.055-10.662-3.109,5.274,3.227,5.388h-2.943l-3.229-5.388,3.058-5.274Z" transform="translate(-7394.231 -74.622)" fill="#ffffff"></path><path id="Trazado_2194" data-name="Trazado 2194" d="M7478.964,89.577a11.229,11.229,0,0,0,3.229-.506l.4,1.985a11.562,11.562,0,0,1-3.907.68c-3.34,0-4.473-1.531-4.473-4.083V84.811c0-2.268,1.019-4.139,4.416-4.139s4.19,1.985,4.19,4.308v2.269h-5.942v.566C7476.87,89.064,7477.379,89.577,7478.964,89.577Zm-2.094-4.482h3.4v-.505c0-1.021-.283-1.7-1.644-1.7s-1.755.68-1.755,1.7Z" transform="translate(-7397.764 -76.135)" fill="#ffffff"></path><path id="Trazado_2195" data-name="Trazado 2195" d="M7496.03,77.912V74.85h2.662v3.062Zm0,12.191V79.443h2.662V90.1Z" transform="translate(-7403.22 -74.679)" fill="#ffffff"></path><path id="Trazado_2196" data-name="Trazado 2196" d="M7508.923,90.388a7.67,7.67,0,0,1-2.322.4c-1.925,0-2.944-.908-2.944-2.835v-5.9h-1.586v-2.1h1.586V77.289l2.664-.4v3h2.718l-.173,2.1h-2.545v5.664a.865.865,0,0,0,.756.963.852.852,0,0,0,.205,0,6.721,6.721,0,0,0,1.359-.226Z" transform="translate(-7404.731 -75.19)" fill="#ffffff"></path><path id="Trazado_2197" data-name="Trazado 2197" d="M7377.858,125.432a12.384,12.384,0,0,1-4.53-.851l.452-2.149a14.27,14.27,0,0,0,4.078.68c1.982,0,2.321-.4,2.321-1.814,0-1.644-.057-1.757-2.656-2.325-3.517-.8-4.026-1.48-4.026-4.542,0-2.665,1.19-3.969,4.87-3.969a23.615,23.615,0,0,1,4.247.454l-.284,2.325a17.558,17.558,0,0,0-3.906-.454c-1.869,0-2.209.4-2.209,1.644,0,1.643.057,1.7,2.548,2.325,3.906.964,4.077,1.588,4.077,4.479C7382.953,124.015,7382.161,125.432,7377.858,125.432Z" transform="translate(-7372.536 -83.585)" fill="#ffffff"></path><path id="Trazado_2198" data-name="Trazado 2198" d="M7389.638,112.92v-3.063h2.662v3.063Zm0,12.138V114.45h2.662v10.66h-2.662Z" transform="translate(-7376.614 -83.433)" fill="#ffffff"></path><path id="Trazado_2199" data-name="Trazado 2199" d="M7403.552,126.506v-7.428c0-.568-.226-.85-.85-.85a7.141,7.141,0,0,0-2.775.907v7.371h-2.654V115.9h2.037l.284.908a10.352,10.352,0,0,1,4.247-1.138,1.954,1.954,0,0,1,1.981,1.138,10.143,10.143,0,0,1,4.3-1.138c1.755,0,2.379,1.248,2.379,3.175v7.712h-2.656v-7.485c0-.568-.227-.85-.85-.85a6.619,6.619,0,0,0-2.774.907V126.5Z" transform="translate(-7378.524 -84.885)" fill="#ffffff"></path><path id="Trazado_2200" data-name="Trazado 2200" d="M7430.582,123.013c0,2.382-1.076,3.742-3.511,3.742a14.937,14.937,0,0,1-2.831-.283V130.9l-2.662.4V115.981h2.1l.283.908a5.651,5.651,0,0,1,3.342-1.138c2.149,0,3.288,1.248,3.288,3.686v3.572Zm-6.4,1.191a10.531,10.531,0,0,0,2.378.283c.962,0,1.36-.454,1.36-1.417v-3.743c0-.85-.341-1.36-1.3-1.36a3.9,3.9,0,0,0-2.377.964V124.2Z" transform="translate(-7384.602 -84.907)" fill="#ffffff"></path><path id="Trazado_2201" data-name="Trazado 2201" d="M7437.059,125v-14.97l2.661-.4V125Z" transform="translate(-7388.473 -83.377)" fill="#ffffff"></path><path id="Trazado_2202" data-name="Trazado 2202" d="M7448.762,124.582a11.219,11.219,0,0,0,3.228-.505l.4,1.985a11.576,11.576,0,0,1-3.908.68c-3.34,0-4.473-1.531-4.473-4.083v-2.841c0-2.269,1.019-4.14,4.416-4.14s4.191,1.985,4.191,4.309v2.268h-5.942v.566C7446.723,124.071,7447.176,124.582,7448.762,124.582Zm-2.039-4.479h3.4V119.6c0-1.021-.283-1.7-1.645-1.7-1.3,0-1.754.68-1.754,1.7Z" transform="translate(-7390.21 -84.889)" fill="#ffffff"></path></g><g id="Grupo_4011" data-name="Grupo 4011"><ellipse id="Elipse_63" data-name="Elipse 63" cx="3.34" cy="3.345" rx="3.34" ry="3.345" transform="translate(52.322 3.062)" fill="#ffffff"></ellipse><ellipse id="Elipse_64" data-name="Elipse 64" cx="3.907" cy="3.912" rx="3.907" ry="3.912" transform="translate(41.45 26.877)" fill="#ffffff"></ellipse><path id="Trazado_2203" data-name="Trazado 2203" d="M7289.981,83.486a6.441,6.441,0,0,1,3.287-5.614h0V73.506a2.909,2.909,0,0,0-2.655-2.949,2.814,2.814,0,0,0-3,2.613c0,.074-.007.148-.007.222v30.789a3.287,3.287,0,0,1-6.575,0V78.717a8.957,8.957,0,0,0-8.946-8.959,8.863,8.863,0,0,0-8.832,8.894V93.465h0v10.716a3.288,3.288,0,1,1-6.575,0V55.645a2.906,2.906,0,0,0-2.656-2.948,2.866,2.866,0,0,0-2.942,2.787v48.7a8.919,8.919,0,0,0,17.838,0h0V89.439h0V78.717a3.287,3.287,0,1,1,6.574,0h0v25.521a8.919,8.919,0,1,0,17.837,0h0V89.156h0A6.6,6.6,0,0,1,7289.981,83.486Z" transform="translate(-7251.079 -52.696)" fill="#74e507"></path><path id="Trazado_2204" data-name="Trazado 2204" d="M7327.173,116.036h-5.492V72.66h5.492Z" transform="translate(-7268.735 -57.688)" fill="#ffffff"></path><path id="Trazado_2205" data-name="Trazado 2205" d="M7349.222,107.734a6.637,6.637,0,0,1-6.625-6.634V75.584h7.134V69.97H7342.6V53.526h-5.606V69.913h-3.226v5.67h3.114v25.46a12.286,12.286,0,0,0,12.262,12.31h4.1V107.74h-4.021Z" transform="translate(-7271.757 -52.903)" fill="#ffffff"></path></g></g></g></g></svg> 